PathFileType	4	(x/y/z)	S08_M20_T13
DataRate	CameraRate	NumFrames	NumMarkers	Units	OrigDataRate	OrigDataStartFrame	OrigNumFrames
240	240	9	51	mm	240	459	524
Frame#	Time	Sternum			R.Acromium			L.Acromium			Top.Head			R.ASIS			L.ASIS			R.PSIS			L.PSIS			R.Great.Tro			L.Great.Tro			R.Iliac.Crest			L.Iliac.Crest			V.Sacral			R.Thigh.Upper.Post			R.Thigh.Lower.Ant			R.Thigh.Lower.Post			R.Thigh.Upper.Ant			R.Knee.Lat			R.Knee.Med			R.Shank.Upper.Post			R.Shank.Lower.Ant			R.Shank.Lower.Post			R.Shank.Upper.Ant			R.Ankle.Lat			R.Ankle.Med			R.Heel.Upper			R.Heel.Med			R.Heel.Lat			R.Toe.Lat			R.Toe.Med			R.Toe.Tip			L.Thigh.Upper.Post			L.Thigh.Lower.Ant			L.Thigh.Lower.Post			L.Thigh.Upper.Ant			L.Knee.Lat			L.Knee.Med			L.Shank.Upper.Post			L.Shank.Lower.Ant			L.Shank.Lower.Post			L.Shank.Upper.Ant			L.Ankle.Lat			L.Ankle.Med			L.Heel.Upper			L.Heel.Med			L.Heel.Lat			L.Toe.Lat			L.Toe.Med			L.Toe.Tip			Cervical.Spine			Back			
		X1	Y1	Z1	X2	Y2	Z2	X3	Y3	Z3	X4	Y4	Z4	X5	Y5	Z5	X6	Y6	Z6	X7	Y7	Z7	X8	Y8	Z8	X9	Y9	Z9	X10	Y10	Z10	X11	Y11	Z11	X12	Y12	Z12	X13	Y13	Z13	X14	Y14	Z14	X15	Y15	Z15	X16	Y16	Z16	X17	Y17	Z17	X18	Y18	Z18	X19	Y19	Z19	X20	Y20	Z20	X21	Y21	Z21	X22	Y22	Z22	X23	Y23	Z23	X24	Y24	Z24	X25	Y25	Z25	X26	Y26	Z26	X27	Y27	Z27	X28	Y28	Z28	X29	Y29	Z29	X30	Y30	Z30	X31	Y31	Z31	X32	Y32	Z32	X33	Y33	Z33	X34	Y34	Z34	X35	Y35	Z35	X36	Y36	Z36	X37	Y37	Z37	X38	Y38	Z38	X39	Y39	Z39	X40	Y40	Z40	X41	Y41	Z41	X42	Y42	Z42	X43	Y43	Z43	X44	Y44	Z44	X45	Y45	Z45	X46	Y46	Z46	X47	Y47	Z47	X48	Y48	Z48	X49	Y49	Z49	X50	Y50	Z50	X51	Y51	Z51	

459	1.9083	870.94	1197	307.38	764.99	1430.3	490.22	752.73	1468.1	157.52	785.99	1752.4	339.66	870.62	988.7	411.82	847.16	988.34	178.65	662.78	1008.5	360.81	657.7	1016.8	268.07	822.48	877.04	489.69	737.56	892.89	121.79	776.78	1052.4	470.26	749.24	1072	159.44	642.58	972.78	313.35	882.05	681.62	476.38	989.32	623.5	433.61	922.9	602.8	454.01	952.92	709.16	455.61	1001.3	528.9	429.64	964.34	514.67	305.42	1026	338.16	436.99	1108.5	311.39	411.51	1060.8	269.71	427.44	1073.6	380.38	423.15	1143.8	118.7	388.07	1159.3	152.02	308.53	1125.8	60.982	335.57	1150.6	48.923	306.51	1144.6	41.907	368.06	NaN	NaN	NaN	1297.7	160.54	298.93	1340	209.56	349.65	665.49	703.62	140.5	721.58	593.71	165.36	656.3	613.75	160.74	732.08	679.16	140.36	637.56	509.61	184.4	645.14	510.71	310.05	514.78	359.93	189.3	545.78	255.6	215.96	485.22	293.83	208.45	570.29	325.85	197.76	443.67	123.35	231.91	466.14	124.82	318.57	382.9	103.52	283.44	390.57	67.641	313.05	384.96	76.069	248.95	555.22	39.116	212.22	576.99	37.947	327.48	641.93	44.294	277.47	692.27	1494.1	318.01	637.76	1210.5	319.54
460	1.9125	876.62	1196.2	307.58	770.69	1429.5	490.63	758.39	1467.4	157.93	791.24	1751.7	340.15	876.59	987.91	411.93	852.67	987.5	178.76	668.7	1007.8	361.42	663.42	1016.1	268.67	828.62	876.41	489.98	742.66	892.24	122.23	782.87	1051.7	470.61	754.78	1071.2	159.79	648.34	972.09	314.01	888.34	681.1	476.49	995.63	623.16	433.4	929.26	602.35	453.98	959.1	708.75	455.47	1007.5	528.41	429.38	970.47	514.28	305.23	1031.5	337.46	436.72	1113.9	310.41	411.22	1066	268.9	427.14	1079.3	379.49	422.86	1148.4	117.69	387.69	1164.1	150.9	308.15	1130.3	60.085	335.14	1155	47.914	306.14	1148.9	40.961	367.7	NaN	NaN	NaN	1302.5	159.01	298.76	1344.9	207.95	349.54	669.75	703.28	141.21	725.68	593.22	165.4	660.49	613.53	161.03	736.44	678.63	140.51	641.37	509.43	184.55	649.23	510.33	310.2	517.57	360.69	189.37	547.75	256.1	215.9	487.49	294.81	208.42	572.82	326.17	197.78	444.64	124.54	231.77	467.14	125.87	318.42	383.75	105.23	283.27	391.12	69.358	312.96	385.57	77.695	248.82	555.39	39.143	212.2	577.19	38.151	327.48	642.11	44.098	277.45	697.89	1493.3	318.42	643.53	1209.7	319.9
461	1.9167	882.34	1195.5	307.8	776.41	1428.8	491.05	764.07	1466.7	158.35	796.5	1750.9	340.65	882.6	987.14	412.06	858.24	986.66	178.88	674.67	1007.1	362.03	669.19	1015.3	269.27	834.8	875.8	490.27	747.81	891.59	122.67	788.98	1051	470.97	760.37	1070.3	160.15	654.15	971.41	314.65	894.69	680.61	476.57	1002	622.86	433.18	935.68	601.93	453.91	965.33	708.38	455.32	1013.7	527.96	429.09	976.67	513.93	305.03	1036.9	336.76	436.47	1119.2	309.34	410.92	1071.2	268.06	426.87	1084.9	378.56	422.56	1152.7	116.57	387.37	1168.5	149.63	307.81	1134.4	59.132	334.78	1159.1	46.8	305.85	1152.8	39.946	367.41	NaN	NaN	NaN	1307	157.17	298.64	1349.5	206.02	349.43	674.1	702.94	141.93	729.87	592.73	165.46	664.75	613.31	161.33	740.89	678.1	140.67	645.25	509.26	184.71	653.41	509.96	310.35	520.44	361.46	189.45	549.79	256.62	215.85	489.82	295.84	208.4	575.42	326.51	197.8	445.67	125.77	231.62	468.21	126.95	318.25	384.65	107.01	283.09	391.7	71.148	312.86	386.22	79.387	248.7	555.58	39.176	212.18	577.4	38.37	327.48	642.3	43.911	277.45	703.53	1492.6	318.84	649.33	1208.9	320.26
462	1.9208	888.11	1194.8	308.03	782.16	1428	491.49	769.77	1466.1	158.78	801.76	1750.2	341.16	888.66	986.39	412.21	863.87	985.83	179.01	680.7	1006.4	362.65	675.02	1014.6	269.87	841.01	875.22	490.57	753.03	890.94	123.13	795.14	1050.3	471.33	766.02	1069.5	160.51	660.02	970.75	315.29	901.08	680.15	476.63	1008.4	622.59	432.96	942.16	601.54	453.83	971.61	708.03	455.17	1020	527.53	428.77	982.9	513.6	304.81	1042.3	336.08	436.25	1124.3	308.21	410.62	1076.1	267.19	426.62	1090.4	377.59	422.23	1156.6	115.37	387.09	1172.6	148.23	307.51	1138	58.144	334.47	1162.7	45.6	305.62	1156.3	38.882	367.19	NaN	NaN	NaN	1311.2	155.06	298.55	1353.8	203.79	349.33	678.54	702.6	142.64	734.13	592.23	165.53	669.1	613.09	161.65	745.4	677.58	140.85	649.22	509.08	184.88	657.66	509.58	310.52	523.39	362.26	189.53	551.9	257.17	215.8	492.23	296.89	208.38	578.09	326.87	197.82	446.75	127.05	231.47	469.33	128.07	318.07	385.6	108.86	282.91	392.33	73.015	312.77	386.91	81.146	248.58	555.77	39.217	212.17	577.62	38.606	327.49	642.48	43.733	277.44	709.19	1491.8	319.28	655.17	1208.1	320.64
463	1.925	893.92	1194.1	308.28	787.94	1427.3	491.94	775.49	1465.4	159.23	807.04	1749.5	341.68	894.76	985.66	412.38	869.56	985.02	179.16	686.78	1005.7	363.27	680.91	1013.9	270.46	847.26	874.65	490.87	758.32	890.29	123.61	801.33	1049.6	471.69	771.74	1068.7	160.87	665.95	970.11	315.92	907.51	679.72	476.67	1014.8	622.36	432.74	948.67	601.19	453.72	977.93	707.72	455.02	1026.3	527.13	428.43	989.18	513.3	304.57	1047.5	335.41	436.04	1129.3	307.02	410.32	1080.9	266.3	426.38	1095.9	376.58	421.89	1160.3	114.09	386.86	1176.5	146.71	307.23	1141.3	57.143	334.2	1166	44.337	305.45	1159.3	37.79	367.04	NaN	NaN	NaN	1315.1	152.68	298.51	1357.9	201.28	349.25	683.08	702.27	143.35	738.48	591.75	165.62	673.53	612.86	161.99	750	677.06	141.05	653.28	508.91	185.06	662	509.2	310.69	526.42	363.09	189.61	554.06	257.75	215.75	494.72	297.97	208.36	580.84	327.24	197.84	447.89	128.36	231.32	470.52	129.22	317.86	386.61	110.79	282.71	393.01	74.957	312.67	387.64	82.973	248.46	555.97	39.264	212.15	577.85	38.856	327.5	642.67	43.564	277.45	714.87	1491.1	319.73	661.03	1207.3	321.03
464	1.9292	899.79	1193.4	308.53	793.75	1426.6	492.41	781.22	1464.8	159.68	812.32	1748.8	342.21	900.92	984.95	412.56	875.32	984.22	179.32	692.92	1005	363.89	686.85	1013.3	271.04	853.55	874.11	491.17	763.67	889.64	124.09	807.56	1049	472.06	777.52	1068	161.24	671.93	969.49	316.54	913.97	679.32	476.69	1021.3	622.15	432.52	955.2	600.86	453.59	984.29	707.44	454.88	1032.7	526.74	428.08	995.47	513.01	304.33	1052.7	334.75	435.85	1134.2	305.76	410.02	1085.6	265.39	426.17	1101.3	375.54	421.54	1163.7	112.75	386.67	1180.1	145.09	306.99	1144.3	56.153	333.98	1168.9	43.036	305.32	1162.1	36.693	366.94	NaN	NaN	NaN	1318.8	150.07	298.5	1361.8	198.5	349.18	687.71	701.95	144.04	742.91	591.26	165.73	678.05	612.63	162.35	754.68	676.54	141.27	657.42	508.74	185.25	666.41	508.83	310.87	529.53	363.94	189.69	556.3	258.35	215.7	497.28	299.08	208.35	583.66	327.63	197.88	449.1	129.71	231.16	471.77	130.41	317.64	387.68	112.8	282.52	393.73	76.977	312.57	388.42	84.869	248.34	556.18	39.32	212.14	578.09	39.119	327.52	642.85	43.405	277.46	720.56	1490.4	320.2	666.94	1206.5	321.44
465	1.9333	905.7	1192.8	308.8	799.59	1425.9	492.89	786.96	1464.1	160.15	817.62	1748.1	342.74	907.12	984.27	412.76	881.15	983.43	179.49	699.12	1004.4	364.5	692.86	1012.6	271.62	859.88	873.59	491.48	769.09	888.98	124.59	813.83	1048.3	472.43	783.36	1067.2	161.62	677.97	968.9	317.15	920.46	678.94	476.69	1027.8	621.95	432.31	961.76	600.56	453.44	990.69	707.17	454.74	1039	526.38	427.72	1001.8	512.74	304.1	1057.8	334.1	435.67	1139	304.47	409.72	1090.2	264.48	425.97	1106.7	374.47	421.18	1166.9	111.36	386.51	1183.6	143.4	306.77	1146.9	55.198	333.77	1171.4	41.723	305.24	1164.5	35.614	366.88	NaN	NaN	NaN	1322.3	147.24	298.53	1365.5	195.49	349.12	692.45	701.63	144.71	747.42	590.77	165.85	682.65	612.4	162.72	759.44	676.02	141.5	661.65	508.57	185.46	670.91	508.45	311.07	532.73	364.81	189.79	558.6	258.98	215.65	499.92	300.22	208.34	586.55	328.05	197.91	450.37	131.1	231	473.1	131.63	317.41	388.81	114.88	282.32	394.52	79.075	312.48	389.25	86.835	248.23	556.4	39.383	212.12	578.35	39.393	327.54	643.04	43.254	277.47	726.27	1489.6	320.69	672.87	1205.7	321.85
466	1.9375	911.67	1192.2	309.08	805.46	1425.2	493.39	792.72	1463.5	160.64	822.92	1747.5	343.28	913.38	983.61	412.96	887.04	982.66	179.68	705.36	1003.8	365.11	698.93	1012	272.19	866.26	873.09	491.79	774.59	888.33	125.09	820.14	1047.8	472.8	789.28	1066.4	161.99	684.06	968.32	317.76	926.96	678.59	476.67	1034.3	621.78	432.11	968.32	600.28	453.28	997.11	706.92	454.6	1045.4	526.02	427.35	1008	512.47	303.86	1062.7	333.45	435.5	1143.7	303.14	409.42	1094.6	263.55	425.78	1112	373.39	420.81	1169.8	109.95	386.37	1186.8	141.64	306.58	1149.3	54.303	333.59	1173.7	40.423	305.18	1166.6	34.578	366.85	NaN	NaN	NaN	1325.6	144.23	298.59	1369	192.26	349.08	697.28	701.33	145.37	752.02	590.29	165.99	687.34	612.17	163.11	764.28	675.51	141.75	665.97	508.41	185.67	675.48	508.08	311.27	536.01	365.71	189.88	560.98	259.64	215.6	502.64	301.4	208.33	589.52	328.48	197.96	451.71	132.53	230.84	474.49	132.89	317.16	390.01	117.04	282.12	395.36	81.253	312.39	390.13	88.874	248.12	556.63	39.455	212.11	578.63	39.677	327.55	643.22	43.112	277.49	732	1489	321.19	678.84	1205	322.27
467	1.9417	917.69	1191.6	309.37	811.36	1424.6	493.9	798.49	1462.9	161.13	828.24	1746.9	343.83	919.68	982.97	413.18	893.01	981.9	179.88	711.65	1003.2	365.71	705.06	1011.4	272.75	872.69	872.61	492.1	780.17	887.68	125.61	826.5	1047.2	473.17	795.26	1065.7	162.38	690.21	967.78	318.36	933.48	678.28	476.63	1040.8	621.61	431.91	974.87	600.03	453.1	1003.6	706.69	454.48	1051.7	525.68	426.99	1014.3	512.22	303.64	1067.7	332.82	435.34	1148.3	301.79	409.13	1099	262.62	425.6	1117.2	372.3	420.44	1172.6	108.53	386.26	1189.8	139.86	306.4	1151.4	53.492	333.41	1175.7	39.162	305.14	1168.4	33.606	366.84	NaN	NaN	NaN	1328.7	141.07	298.68	1372.4	188.85	349.06	702.22	701.03	146.01	756.71	589.8	166.15	692.12	611.94	163.52	769.21	675	142.01	670.38	508.24	185.9	680.15	507.7	311.48	539.38	366.63	189.98	563.43	260.33	215.55	505.45	302.6	208.33	592.58	328.93	198.01	453.12	134	230.68	475.96	134.19	316.9	391.29	119.28	281.92	396.27	83.511	312.29	391.07	90.986	248.01	556.86	39.534	212.1	578.92	39.969	327.57	643.4	42.98	277.52	737.75	1488.3	321.71	684.84	1204.2	322.71
